<?xml version="1.0" encoding="utf-8"?>
<!-- Generator: Adobe Illustrator 20.1.0, SVG Export Plug-In . SVG Version: 6.00 Build 0)  -->
<svg version="1.1" id="Make2D::visible::lines::Default"
	 xmlns="http://www.w3.org/2000/svg" xmlns:xlink="http://www.w3.org/1999/xlink" x="0px" y="0px" viewBox="0 0 1224 792"
	 style="enable-background:new 0 0 1224 792;" xml:space="preserve">
<style type="text/css">
	.st0{fill:none;stroke:#000000;stroke-linecap:round;stroke-linejoin:round;}
</style>
<path class="st0" d="M371.1,731.3c-18.2-5.9-33.7-14.6-48.3-27c-7.1-6-15.6-14-18-24c-1.6-6.5,0.4-11.4,3.2-16.9
	c2.7-5.4,5.5-10.9,8.2-16.3c10.7-21,21.5-41.9,32.5-62.7c1.6-3,7.3-17.5,12.3-18.4c4.2-0.7,6.8,1.4,9.9,3.3
	c4.9,3.1,9.2,6.8,13.4,10.7c14.5,13.2,28.2,27.3,42.8,40.5c20.6,18.7,42.1,35.9,65.6,50.9c27.2,17.4,54.6,31.1,86.5,38.2
	c6.8,1.5,13.6,2.6,20.6,3.3c4.3,0.4,12.7,2.3,16.3-2.5c4-5.2,2.8-15.1,2.7-20.5c-0.4-12.8-1.2-25.5-1.5-38.3
	c-0.4-15.6-0.8-66.8,3.6-82.5c8.5-30,40.3-69.3,56.4-93.7c35.6-54,61.7-112.1,61.3-179.4c-0.2-42-8.7-78.7-28.9-115.8
	c-11.7-21.5-26.1-40-43.6-57c-8.2-8-17-15.5-25.9-22.7c-5.2-4.2-10.5-8.3-15.4-12.9c-1.1-1-5.2-4.4-4.3-6.6c0.5-1.3,1.3-2.4,2-3.6
	c2.9-5,6.2-9.8,9.7-14.5c1.9-2.5,3.8-4.9,5.8-7.2c1-1.2,2.1-2.4,3.2-3.6c2.1-2.3,2.3-2.7,0.3-5.3c-7.9-10.5-25.9-18-38.2-19.2
	c-22.1-2.2-22.9,11.4-13.7,28.6c1.3,2.4,2.6,4.7,4.1,7.1c1.6,2.6,3.9,4.5,4.6,7.8c0.7,3.6-5.5,5.5-7.7,6.2
	c-6.3,2.1-12.8,3.6-18.9,6.4c-18.1,8.2-11.8,19.3-0.6,31.3c9.9,10.5,20.7,20,31.1,30c14.9,14.3,28.5,29.1,39.7,46.6"/>
<path class="st0" d="M643.7,194.3c18.9,30.8,27.8,65.4,26.7,101.4"/>
<path class="st0" d="M670.1,301.1c-1.1,19-4.7,36.9-11.1,54.8c-3.2,8.9-6.7,17.3-12.2,25.1c-2.1,3-3.7,5.9-7.7,7.1
	c-2.4,0.7-3.9-0.6-5.7-1.6c-3.3-1.8-6.6-3.6-9.9-5.5c-8.2-4.7-16.3-8.8-22.9-16c-3.9-4.3-3.3-9-3.9-13.9c-0.5-4.4-1-8.8-1.7-13.1
	c-2.7-18.6-6.9-36.6-13-54.5"/>
<path class="st0" d="M390.4,733.2c-21.3-4.5-45-16.6-61.1-31.2c-7.5-6.8-16.8-15.8-15.4-27.9c1-8.3,5.6-14.5,9-21.5
	c3.5-7.1,7-14.1,10.6-21.1c6.9-13.7,13.9-27.3,21-41c3-5.7,5.1-11.8,8.8-17.2c3.9-5.7,8-3.1,12.7-0.5c9.9,5.5,17.4,13.4,25.5,20.9
	c13.6,12.6,27.1,25.3,41.4,37.2c34.6,28.9,76.7,57,121.1,69.8c12.9,3.7,25.7,6.1,39.1,6.8c15.8,0.8,19.5-0.7,19.5-17.3
	c0-9.5-0.7-18.9-1.1-28.3c-0.5-12.7-0.8-25.4-0.7-38.2c0.1-14.2,0.6-28.3,1.4-42.5c1-17,7.1-31,15.1-45.4
	c17.4-31.3,39.3-59.5,56.6-90.8c20.1-36.6,34.1-73.2,39.3-115.1c6-48.5-1.5-98.5-23.8-142.4c-12.9-25.3-29.4-46.3-49.8-65.8
	c-7.1-6.8-14.5-13.1-21.9-19.6c-4.2-3.6-8.4-7.1-12.1-11.3c-3.5-4-2.1-5.3,0.5-9c3.4-4.9,7.1-9.5,11-13.9c2.1-2.4,4.2-4.7,6.4-6.9
	c2.1-2.1,1.1-3.7-0.4-5.7c-3.9-5-8.6-8.2-13.9-11.2c-6.7-3.8-13.4-6.5-21.3-7.2c-5-0.5-12.4,0-15.3,5.6c-3.7,7.2,1.6,17,4.4,22.6
	c1.4,2.9,3,5.7,4.6,8.5c2.3,4.1,0.2,6.1-3.4,8c-7.5,3.9-29,7.5-26.9,21.6c1.3,9.1,10.3,17.8,15.8,23.7c11.8,12.7,24.1,25,35.4,38.2
	c33.7,39.5,50.9,84,47.9,136.7c-1.5,24.9-7.2,51-18.9,73.4c-2.2,4.2-9.4,18.7-16.4,14.6c-6.7-3.9-13.4-7.8-19.8-12.2
	c-6-4.1-14-8.4-14.8-17.4c-0.9-9.4-2-18.8-3.6-28.1c-3-17.7-7.6-34.8-14-51.6"/>
<path class="st0" d="M408.3,733.6c-20.2-1.9-43-12-59.3-23.2c-9.5-6.6-21.8-15.8-25.2-28.4c-2.2-8.1,0.9-14,4.2-20.7
	c3.2-6.6,6.5-13.3,9.7-19.9c6.3-12.9,12.8-25.8,19.3-38.6c3.1-6.1,6.2-12.1,8.9-18.3c1.2-2.7,3.5-9.8,7.7-10.4
	c7.3-0.9,18,9.1,22.3,12.6c13.2,11,25.7,22.9,38.8,34c35.7,30.3,78.8,60.2,125.1,73.6c14,4.1,27.8,6.6,42.4,6.9
	c13,0.3,22.8,2.1,23.7-14.7c0.4-8.5-0.3-16.9-0.7-25.3c-0.5-11.7-0.9-23.5-0.9-35.2c0-13.5,0.3-27,0.9-40.6
	c0.9-19.1,1.9-27.2,10-44.7c13.3-28.8,35.7-59.6,51-86.9c20.4-36.5,35.4-73.1,42-114.8c7.2-45.7,2.2-93.8-16.1-136.6
	c-11.4-26.6-26.8-49-46.6-69.9c-11.2-11.8-23.8-22-35-33.7c-1.5-1.6-4.6-4.4-4.7-7.1c-0.1-1.8,1.3-2.4,2.1-3.4
	c3.6-4.5,7.4-8.8,11.4-12.9c2.1-2.2,4.6-3.9,6.6-6.4c1.5-1.9-2.7-6.4-3.7-7.4c-4.2-4.4-8.9-7.7-14.3-10.4c-5.8-3-11.4-5.1-18.2-5
	c-4.8,0.1-9.7,1.8-11,7.2c-1.9,7.5,2.8,16.5,5.7,22.5c1.2,2.5,3.5,4.4,1.8,7.7c-2.2,4.2-6,4.9-9.5,6.6c-11.1,5.6-19.7,10.8-13,24.6
	c5,10.2,12.6,17.9,19.8,26.2c11.5,13.3,22.8,26.5,32.9,41c27.3,39.4,38.7,83.5,33.2,131.2c-2.6,22.5-8.5,46.4-19.8,66.5
	c-2.4,4.2-8.8,16.3-15.5,12.1c-6.4-4-12.7-8-18.7-12.6c-3.9-2.9-7.6-5.8-10.3-9.9c-1.7-2.5-1.9-5.1-2.2-7.9c-0.9-10-2.2-19.9-4-29.7
	c-3.4-18.8-8.7-36.7-16-54.4"/>
<path class="st0" d="M424.9,733c-17.8,0.4-38.8-7-53.9-15.1c-11.9-6.3-25.5-15.2-33.4-26.9c-10.5-15.5-1.6-26,4.6-39.1
	c5.8-12.1,11.6-24.1,17.5-36.1c2.9-5.9,5.8-11.7,8.7-17.6c2.5-4.9,4.2-10.2,6.5-15.2c1.3-2.8,2.2-5.2,6-5c4.6,0.2,7.7,2.6,11.2,4.9
	c13.2,8.4,24.2,19.2,36,29.2c37.2,31.3,80.4,62.5,128.9,76.3c14.9,4.3,29.6,6.7,45.2,6.6c4.3,0,15.5-0.4,19.7-2.1
	c5.6-2.1,6.8-5.8,7.5-11.1c0.9-7.4,0.2-14.7-0.1-22c-0.5-10.6-0.9-21.2-1.1-31.8c-0.2-12.9-0.1-25.7,0.3-38.6
	c0.5-15.3,0.9-30.1,6.2-44.9c10.4-28.8,32-59.6,46.5-85.8c19.7-35.6,35.1-71.4,42.5-112c7.9-43.3,5.1-89.1-9.9-130.8
	c-9.9-27.5-24.1-50.9-43.2-73c-10.8-12.5-22.9-23.6-34.2-35.5c-2.5-2.6-5-5-6.7-8.4c-0.8-1.6-0.6-2.8,0.6-4.1
	c3.7-4.1,7.6-8,11.7-11.8c1-1,6-4.4,5.4-6.6c-2-7.9-13.9-14.9-20.1-17.6c-8-3.5-21.4-6.2-22.2,5.8c-0.2,3.2,0.5,6.2,1.3,9.2
	c0.6,2,1.3,4,2,5.9c0.9,2.2,2.3,4.1,2.3,6.7c0.1,5.6-10.5,10.8-13.3,13.2c-10.2,8.7-6,18.1-0.2,27.4c6.4,10.2,14.2,19.3,21.4,28.8
	c10.7,14.1,21,28.2,29.5,43.8c21.1,39,27.6,81.7,20.2,125.2c-3.4,20-9.3,41.6-20,59.3c-2.5,4.1-8.2,13.9-14.5,9.7
	c-6-4-12-8.1-17.5-12.8c-7-6-9.5-8.8-10.3-18.3c-1-10.6-2.4-21-4.4-31.4c-3.8-19.9-9.8-38.7-18.3-57.2"/>
<path class="st0" d="M439.6,731.8c-27.4,3.7-67.8-14.2-86.4-32.9c-13.7-13.8-13.2-22-5.4-38.8c5-10.7,27.3-56.1,31.3-67.3
	c2.9-8,4-13.5,13.8-9.1c12.1,5.4,24.1,16.7,34,24.7c18.3,14.8,36.9,29.2,57,41.7c22.7,14.2,45.8,25.8,71.9,32.8
	c15.6,4.2,30.9,6.5,47.2,5.7c7-0.3,13.8-0.7,20.7-2.8c5.3-1.7,8-4.4,9.2-9.9c1.4-6.3,0.8-12.5,0.5-18.8c-0.4-9.4-0.9-18.8-1.2-28.2
	c-0.4-12.2-0.5-24.4-0.4-36.6c0.2-15.3-0.6-30.3,3.5-45.5c7.7-28.5,28.5-59.7,42.1-84.8c19-34.9,34.3-69.8,42.2-109.2
	c8.3-41.4,7.2-84.9-5.3-125.5c-8.6-28-21.7-52.1-39.7-75.1c-10-12.7-21.4-24.3-32.3-36.2c-2.7-3-5.5-5.9-7.7-9.3
	c-1.1-1.7-2.7-2.9-1.6-5.3c0.6-1.4,10.6-9.9,11.7-10.7c3.3-2.7,5.3-3.4,2.7-7.9c-4-6.9-12.7-13.2-20-15.8c-9-3.2-16.5-2-16,9
	c0.2,3.1,0.9,6.1,1.8,9c1.2,3.9,3,7.2,0.1,11.4c-3.4,5-8.8,7.9-11.3,13.8c-4.5,10.8,3.9,22,8.8,29.5c16.6,25.5,35.4,49.3,47.2,78.1
	c15.6,38.1,18,78.7,9.2,118.6c-3.9,17.5-9.7,36.7-19.8,52.1c-2.6,4-7.7,11.7-13.4,7.5c-5.6-4.1-11.2-8.1-16.1-13
	c-7-6.9-7.6-9.3-8.4-18.8c-1-11.1-2.5-22.2-4.8-33.1c-4.3-21-11.1-40.7-20.7-59.9"/>
<path class="st0" d="M453.7,730.5c-25.3,6.1-64.2-10.1-82.8-24.3c-12.5-9.5-23.6-21.1-16.2-38.7c3.9-9.2,26.7-56.3,30-65.7
	c1.6-4.6,3.3-17.4,11.3-15.3c11.5,3,24,14.2,32.6,20.8c39.3,30,76.8,58,127,70.4c16.1,4,31.8,5.8,48.4,4.2c8.3-0.8,27.8-2,32-13.1
	c2-5.3,1.6-10.4,1.4-15.7c-0.3-8.1-0.9-16.3-1.3-24.4c-0.6-11.5-1-23-1.2-34.5c-0.2-11.7-0.7-34.6,1.5-46.4
	c5.3-27.8,24.9-58.9,37.5-82.7c18.2-34.3,33.5-68.7,41.7-107.2c8.8-41.3,9.1-79.4-1.8-120.6c-7.4-28.1-19.3-52.6-36.3-76.2
	c-9-12.5-19.2-24-29.2-35.7c-3.4-4-10.2-10.2-11.3-16.2c-0.6-3.1,8.9-9.2,10.4-10.3c1.1-0.8,2.2-1.4,2.1-3.2
	c-0.2-2.8-1.7-4.7-3.3-6.7c-4.1-5.4-11.3-11.1-18.2-12.5c-9-1.9-11.3,3.8-10.2,11.8c1.3,10.1,3.5,9.7-2.6,19.1
	c-3.2,5-5.3,9.5-4.7,15.8c1.2,11.2,8.9,22.2,14.3,30.9c16.7,26.9,33.1,53,41.7,84.3c10.1,36.6,9.1,74.5-1.1,110.8
	c-4.1,14.7-9.6,31.4-18.9,44.1c-2.8,3.8-7.2,9.2-12.3,5.1c-5.1-4.1-10.1-8.3-14.4-13.3c-6.4-7.5-5.8-10.1-6.7-19.3
	c-1.1-11.7-2.7-23.3-5.2-34.9c-4.8-22.2-12.5-42.7-23.4-62.6"/>
<path class="st0" d="M466.1,729.5c-23.2,7.3-59.5-6.3-77.7-17.6c-8.9-5.5-16.8-11.2-22.5-20.5c-3.5-5.7-4.7-10.9-3.4-17.6
	c1.4-6.9,25.7-58.1,28-64.5c1.2-3.2,4-18.9,9.8-19.2c4-0.2,10,3.3,13,5c6.4,3.7,12.4,8,18.4,12.3c38.9,27.9,75.7,54.7,124.9,65.3
	c16.4,3.6,32.3,4.8,49.1,2.3c8.4-1.2,28-4.3,33.4-14.1c2.4-4.4,2.3-8.7,2.2-13.3c-0.1-7.1-0.9-14.1-1.4-21.2
	c-0.9-10.9-1.6-21.8-2-32.7c-0.3-7.2-0.5-14.4-0.5-21.7c0-8.3-0.3-16.5,0.8-24.8c3.7-27.2,21.7-57.4,33.5-80.5
	c17.4-33.9,32.5-67.8,40.7-105.4c8.7-39.6,9.8-76.6,0.6-116.4c-6.4-27.9-17.3-52.5-33.1-76.2c-7.9-11.9-16.9-23-25.8-34.2
	c-4.4-5.5-9.2-10.4-12-17.1c-3-7.1,5.9-6.6,7.8-10.8c1.7-3.6-3.5-9.7-5.3-11.7c-3.4-3.7-9.6-8.6-15.3-8.5c-7.5,0.1-6.4,8.8-5.8,13.9
	c0.9,7.2-2.9,12.9-4.1,19.3c-1.3,6.4-0.1,11.9,2.1,17.9c4,11.2,10.3,21,16,31.3c16.1,28.7,30,56.9,35.3,90.3
	c5.7,35.8,2.3,68-9,102.2c-4,12-9,26.3-17.5,36.5c-3.2,3.9-6.2,7.4-11,3c-4.6-4.2-9-8.3-12.6-13.5c-2.3-3.2-4.2-6.3-4.5-10.5
	c-0.2-3.1-0.5-6.2-0.7-9.3c-1.1-12.3-2.9-24.5-5.7-36.6c-5.3-23.4-13.9-44.6-26.1-65.2"/>
<path class="st0" d="M476.8,729c-27,9.1-105.3-15-105.7-49.8c-0.1-8,8.6-25.7,11.5-32.3c4.6-10.4,9.8-20.5,13.8-31.3
	c1.7-4.6,2.8-9.3,4.1-13.9c0.9-3.2,0.8-6.4,4.8-7.9c3.8-1.5,9.3,1.7,12.1,3.1c6.3,3.2,12.2,7.1,18.1,11
	c38.6,25.7,74.7,51.3,122.8,60.1c16.6,3,32.4,3.5,49.1,0.2c6.9-1.4,30.5-7.5,34.8-15.8c4.7-9,1.8-21.4,0.8-30.1
	c-1.1-10.4-2.1-20.7-2.7-31.1c-0.9-15.2-1.6-30.4-0.2-45.7c2.5-26.6,19.2-56,30.3-78.4c16.5-33.5,31.3-66.9,39.6-103.7
	c14.9-66.4,8.5-129.5-28.2-188.6c-6.9-11.1-14.6-21.5-22.3-32c-4.1-5.7-8.5-11.1-11.8-17.4c-1-1.9-3-6-0.4-7.8
	c2.1-1.4,4-2.4,3.4-5.5c-1-5.1-3.7-8.2-7.3-11.5c-2.5-2.3-7.8-6.2-11.9-4.6c-5.6,2.2-3.3,12.1-3.6,15.7c-0.6,7-2.3,13.8-1.1,21
	c1.1,6.9,3.7,13.1,6.5,19.4c4.7,10.3,10.2,20.3,15.2,30.5c15.1,30.7,26.3,60.8,28.3,95.8c1.9,32.9-3,62.6-14.8,93.3
	c-3.7,9.6-8.2,21.7-15.9,29.5c-3.2,3.3-6.1,4.9-9.8,1.1c-4.1-4.2-8-8.4-10.9-13.5c-3.8-6.6-3.5-13.3-4.1-20.3
	c-1.2-12.9-3.1-25.5-6.1-38.1c-5.8-24.5-15.3-46.3-28.7-67.5"/>
<path class="st0" d="M488.1,729.3c-22.4,4.9-46.4-0.6-66.5-9.2c-10.5-4.5-20-9.8-28.5-17.6c-5.4-5-9.6-10-11.4-17.6
	c-2.5-11,4.5-23.2,8.2-31.9c4.4-10.3,9.5-20.3,13.3-30.9c1.7-4.8,2.8-9.7,4-14.6c0.8-3.4,0.7-6.7,4.1-9.2c5.8-4.3,25.2,8.8,29,11.1
	c38.1,23.3,73.5,47.3,120.5,53.6c16.6,2.2,32.2,1.8,48.5-2.6c6.4-1.7,34.1-11.3,38.3-18.6c1.9-3.3-0.1-6.1-0.2-9.2
	c-0.2-5.4-0.8-10.6-1.6-15.9c-3.5-24.3-4.9-48.3-3.7-72.8c1.3-25.9,16.5-54.2,26.9-76.2c15.7-33.1,30-66,38.2-102.1
	c14.6-64.6,9.8-125.4-23.9-184.2c-9.1-15.9-20.6-30.1-29.4-46.2c-1.6-3-2.9-5.9-3-9.5c-0.1-2.9-0.1-5.7-1.4-8.4
	c-1.7-3.8-4-6.7-7.4-9c-2.2-1.5-5.9-3.2-8.1-0.4c-1.5,1.9-1.3,3.8-1.3,5.9c0.1,4.2,0.1,8.5,0.3,12.7c0.3,8.3,2.1,16,4.9,23.7
	c6.1,16.6,14.3,32.2,21.2,48.4c25.7,60.7,27.7,123.8,0.6,184.9c-3.1,7-13.3,30.8-21.9,20.6c-3.5-4.2-6.7-8.4-9-13.5
	c-3.1-6.9-2.4-13.8-3.1-20.8c-1.3-13.4-3.3-26.7-6.6-39.8c-6.4-25.6-16.8-48.1-31.7-69.9"/>
<path class="st0" d="M498.2,730.5c-21.9,3.1-41.2-0.1-61.6-7.7c-10.7-4-20.6-8.8-29.6-15.9c-6.2-4.8-11.3-9.7-14.3-17.3
	c-5.1-12.6,0.5-21.4,4.9-31.8c4.3-10.3,9.3-20.3,12.8-30.8c1.7-4.9,2.7-9.9,3.7-15c0.7-3.5,0.7-7,3.7-9.8c5.4-5.2,24.7,6.9,28.5,9
	c37.8,21.1,72.5,43.3,118.7,46.7c16.3,1.2,31.4-0.5,46.9-5.8c7.5-2.6,36.3-14,41.6-21.7c2.4-3.4-0.2-5.2-2.1-7.5
	c-3.2-4.1-2.7-8.7-3.5-13.1c-4.2-22.8-4.5-45.3-3.8-68.3c0.8-25.7,14.2-52.2,24.1-74.1c14.8-32.7,28.7-65.3,36.7-100.7
	c14.4-63.4,10.4-122.1-21-180.7c-7.5-14-16.6-27-23.9-41.1c-4-7.6-7.4-15.4-12.2-22.5c-3.1-4.7-9.9-8.9-10-1.6
	c-0.1,7.9,1.5,15.3,3.5,22.8c2.2,8.7,5.5,17,8.9,25.3c6,14.6,12.3,29.1,17.5,44.1c12.6,35.8,16.6,69.8,11.6,107.5
	c-3.4,25.9-9.7,49.9-21.8,73.3c-3.4,6.7-11.1,21.5-18,11.7c-2.9-4.2-5.5-8.4-7.1-13.3c-2.3-7.1-1.7-14.2-2.4-21.3
	c-1.3-14-3.5-27.7-7.1-41.3c-7-26.7-18.4-49.8-34.7-72"/>
<path class="st0" d="M508,732.5c-19.7,0.7-38.1-1.2-57-7.4c-15.9-5.3-37.2-14.6-46.6-30.9c-6.8-11.7-3.3-20.7,1.1-31.7
	c4.2-10.3,9-20.2,12.4-30.8c1.6-5,2.5-10.1,3.5-15.3c0.7-3.7,0.7-7.2,3.4-10.4c5.3-6.2,23.7,4.7,28,6.8
	c37.3,18.7,71.5,38.9,116.5,39.1c16.3,0.1,31-3.3,46-9.2c9.5-3.7,36.3-16.2,43.7-24.4c2.7-3,1.2-5.1-1.9-6.7
	c-5.1-2.8-6.1-3.7-7.1-9.5c-3.6-20.6-4.1-41-3.6-61.8c0.7-26.4,10.6-48.4,20.6-71.5c14-32.6,27.7-64.9,35.8-99.7
	c14.4-61.7,11.7-118.5-16.5-176.7c-6.5-13.4-13.5-26.3-21.4-38.9c-4.9-7.9-9.2-16-16-22.8c-5.5-5.5-4.1,2.7-3.1,7.7
	c1.9,9.1,4.8,17.8,8,26.4c7.7,21.1,16.5,41.8,22.4,63.6c10.5,39,10.9,75.2,2.1,114.6c-3.1,13.8-7.2,27.2-12.5,40.4
	c-2.9,7.2-5.9,14.2-10.3,20.7c-4.5,6.7-8.6,10.1-13.3,1.7c-2.3-4.1-4.1-8.3-5-13c-1.4-7.2-1.1-14.5-1.8-21.8
	c-1.4-14.5-3.8-28.6-7.7-42.7c-7.7-27.7-20-51.3-37.7-73.8"/>
<path class="st0" d="M516.7,735.3c-17.7-1.2-35.1-2.7-52.3-8c-16.2-4.9-36.8-13.6-47.8-28.3c-7.9-10.6-7.8-19.4-3.3-31.2
	c3.9-10.2,8.7-20,11.9-30.6c1.6-5.2,2.5-10.4,3.4-15.7c0.6-3.9,0.8-7.7,3-11.3c4.8-7.8,21.3,1.3,26.2,3.5
	c36.6,16,69.9,34.3,113.1,32.1c29.9-1.5,67.9-18.8,90.3-37.5c2.7-2.2,6.3-5.7,1.6-7.5c-3.9-1.4-8.3-0.9-10.9-5.6
	c-2.1-3.9-2.4-15.1-2.8-19c-1-11.3-1.2-22.6-1-34c0.2-9.8,0.6-19.5,2.8-29.2c3.1-13.3,7.9-25.8,13-38.4c13.1-32.5,27-64.5,35.6-98.8
	c14.7-58.7,15-114.6-9-171.9c-6.1-14.4-13.5-28-22-41.1c-2.7-4.1-5.4-8.1-8.4-12c-1.5-1.9-2.6-4-5-5.2c-1.7-0.8-1.4,1.4-1.2,2.6
	c0.5,4.4,2,8.6,3.3,12.7c9.1,28.4,20.7,55.9,26,85.6c8.1,45,2.8,89.7-12.8,132.2c-3.6,9.7-7.1,19.2-12.9,27.9c-1.3,2-4,6.6-7.4,5.8
	c-3.4-0.8-5.9-8.9-6.6-11.2c-1.2-3.8-1.7-7.6-1.9-11.6c-0.4-7.3-1-14.6-1.8-21.8c-1.7-14.6-4.4-28.8-8.6-42.8
	c-8.4-27.9-21.5-51.3-40.1-73.5"/>
<path class="st0" d="M524.3,738.7c-15.7-3.1-31.7-4.5-47.3-9c-16.1-4.7-35.5-12.5-47.6-25.5c-19.5-20.8-3.6-40.8,2.5-60
	c1.7-5.4,2.8-10.8,3.6-16.3c0.6-4.2,0.9-8.5,2.5-12.6c3.8-9.9,16-4,22.4-1.7c35.3,12.7,67.7,29.3,108.2,26.3
	c31.9-2.4,65.9-19.6,90.1-38.7c1.5-1.2,11.1-7.5,8.9-10.2c-0.9-1.1-9.4-2.8-10.5-3.3c-6-2.7-5.4-7.5-5.9-12.7
	c-0.9-9.2-1.3-18.5-1.3-27.7c-0.1-24.2,1.7-39.1,9.8-62.1c11.5-32.7,26.1-64.2,35.4-97.9c14.9-54,20.1-109.8,0.9-164.9
	c-5.2-14.9-11.7-28.8-19.9-42.3c-2.1-3.4-4.2-6.7-6.7-9.8c-0.3-0.4-2.6-3.3-3.4-2.7c-1.2,0.8,0.1,4.4,0.3,5.2
	c1.2,5.1,2.9,10.1,4.4,15c8.3,26.5,16,52.7,18.2,80.8c2.6,32.7-1.3,63.3-10.4,94.6c-4.5,15.3-9.7,32.4-18.5,46.2
	c-1.7,2.7-5.1,7.8-8.1,3.9c-2.4-3.1-3-6.6-3.7-10.1c-1.6-7.2-1.4-14.4-2-21.6c-0.6-7.1-1.3-14.1-2.4-21.1
	c-2.1-14.1-5.2-27.7-9.8-41.1c-9.2-26.8-22.8-49.2-41.4-70.3"/>
<path class="st0" d="M531,742.8c-13.7-4.7-28.1-6.3-41.9-10.3c-16.8-4.9-32.2-10.5-45.9-22.5c-22.1-19.2-12.9-35.3-5-57.1
	c3.7-10.1,4.3-20.7,6.5-31c2.1-9.6,7.8-10.7,16.5-8.8c15.4,3.4,29.8,9.7,44.8,14c18.5,5.2,36.6,8.5,56.1,7.3
	c32.3-2,65.5-18,90.4-37.1c5.1-4,10.1-8.1,14.7-12.7c3-3,2.8-4.4-1.4-5.6c-3.9-1.1-7.8-1.3-10.8-5c-3.2-4-2.6-14.1-2.8-18.2
	c-0.7-18.2-1.1-35.9,3.1-53.9c3.6-15.1,9.1-29.3,14.5-43.7c6.8-17.8,13.7-35.6,19.4-53.9c15.8-50.3,24.9-101.7,12.7-155.1
	c-3.4-14.7-7.9-28.7-14.8-42.2c-1.5-3-3-6-5.1-8.7c-0.6-0.8-1.8-2.6-2.2-1c-0.6,2.6,0.4,4.7,0.9,7c1.2,5.6,2.7,11.2,4,16.8
	c5.7,24.7,8.9,49,8.1,74.4c-1.2,36-9.1,68.9-22.8,102c-2.5,6-4.7,12.1-8.8,17.4c-1.2,1.5-2.4,3.5-4.2,1.4c-4-4.5-4.4-22.3-4.7-27.1
	c-3.9-56.2-18.6-100.5-57.9-142.9"/>
<path class="st0" d="M536.6,747.6c-11.5-5.7-23.8-7.8-35.8-11.6c-15-4.7-29.1-10-42.1-19.3c-20.5-14.7-23.3-29.5-14.8-52.4
	c4-10.7,6.3-21.6,7.9-32.8c0.9-6.1,1.5-15.5,10-16.9c5.2-0.9,9.8,0.4,14.7,1.5c7.2,1.6,14.3,3.7,21.4,5.5c17,4.3,33.7,7.5,51.4,7.4
	c29.6-0.3,58.3-10.9,82.8-26.4c10.9-6.8,20.9-14.4,30.1-23.5c1.5-1.5,6.6-6,7-8.5c0.4-2.3-3.8-3.1-5.2-3.6c-4.5-1.4-8-2.6-9.5-7.8
	c-1.7-5.7-1-17.9-0.9-23.5c0.1-13.6,0.7-26.9,3.9-40.2c5.3-22,14-42.6,21.6-63.7c16.4-46.1,29.2-90.5,26.4-141
	c-0.8-14.2-2.6-27.9-6.6-41.7c-0.9-2.9-1.7-5.9-3.2-8.6c-0.3-0.5-0.3-1-1-1.2c-0.7-0.1-0.5,0.5-0.5,0.9c-0.4,2.9,0.1,5.7,0.3,8.5
	c0.5,6,1,12.1,1.3,18.1c1.1,21.3,0.1,42.1-3.4,63.1c-3.4,20.5-8.9,40.2-16,59.8c-3.4,9.3-6.4,18.6-11.6,27.2
	c-1.2,2.1-2.8,4.2-3.8,1.1c-1-2.8-1.1-5.7-1.5-8.5c-1.4-12.6-1.7-25.4-3.3-38c-6.4-51.3-23.8-90.7-60.2-128.1"/>
<path class="st0" d="M540.5,752.6c-9.3-6.1-19.5-8.7-29.6-12.4c-12.8-4.6-25.2-9.4-36.9-16.6c-17.4-10.8-29.2-23.9-24.6-46.4
	c1.2-5.9,3.5-11.5,5.3-17.2c1.6-5.4,2.8-10.8,3.6-16.3c1-6.1,1.3-18.2,5.7-23.8c5.5-7,17.3-4.1,23.7-3.1c14.7,2.4,29.3,5.6,44.3,6.5
	c44.1,2.6,86.1-14.8,118.6-43c6-5.2,11.4-11,16.6-17c5.1-5.8-0.7-6-5.3-8.3c-3.3-1.6-5.2-3.6-6.2-7.3c-1.5-5.7-0.6-11.1-0.5-16.7
	c0.2-8.6,0.3-17.1,1.4-25.7c1.6-13.3,5.6-25.8,9.8-38.4c13.7-40.9,29.2-80.8,35-124.3c1.8-13.5,2.8-26.9,1.9-40.6
	c-0.2-3.1-0.3-6.1-1.1-9.1c-0.1-0.5,0.1-1.1-0.6-1.3c-0.7-0.2-0.5,0.6-0.6,1c-0.8,2.9-0.9,5.8-1.3,8.7c-0.7,5.7-1.4,11.5-2.2,17.2
	c-2.4,16.8-6,33.1-10.8,49.4c-4.6,15.6-9.9,30.8-16.2,45.7c-1.1,2.7-2.2,5.5-3.8,8c-0.4,0.6-1.1,1.2-1.3,0.3
	c-0.9-3.6-0.7-18-0.9-21.6c-0.9-16.1-2.6-32-5.8-47.8c-9.1-45.2-27.9-79.6-60.6-112"/>
<path class="st0" d="M543.2,758.3c-19.3-16.2-82.8-27.4-85.2-66.6c-0.7-11.8,3.8-21.8,6.5-32.5c2.3-9.3,3-18.8,5-28.1
	c1.6-7.2,3.5-12.3,11.6-14.3c9.2-2.3,22.4,0,31.3,0.7c40.1,3.2,73.4-2.9,108.2-24.2c19.3-11.8,31.8-24,46.6-40.8
	c5.9-6.7-1.4-6.7-5.6-10c-3.9-3-4.7-6.5-4.9-11c-0.3-7.7,0.5-15.3,1-22.9c1-14.8,4.7-28.7,9.1-42.6c6.9-22,14.5-43.8,20.6-66.1
	c3.5-12.6,6.6-25.1,8.5-38.1c0.5-3.1,1-6.1,0.9-9.3c0-0.4,0.4-1.2-0.3-1.2c-0.8,0-0.6,0.8-0.8,1.2c-3.5,8-5.4,16.4-8.1,24.6
	c-3.8,11.4-7.8,22.6-12.1,33.8c-1.6,4.3-3.3,8.5-5,12.7c-0.4,0.9-0.7,1.8-1.1,2.7c-0.1,0.2-0.3,1-0.4,0.5c-0.4-2.5,1.2-7.5,1.5-9.9
	c1-9.4,0.3-18.7-0.5-28c-1.7-19.3-4.9-38-10.5-56.5c-11.5-38-30.7-67.4-59.1-94.8"/>
<path class="st0" d="M544.2,764c-17.7-18.2-67.8-28.7-76.4-61.5c-2.8-10.5-0.6-19.7,2.1-29.6c2.5-9.3,4.6-18.7,6.1-28.3
	c2.5-15.7,3.1-27,22.5-29.2c14.5-1.6,29-0.5,43.5-1.9c19.2-1.9,36.9-6.7,54.5-14.7c20.4-9.4,37.7-21.2,53.4-37.3
	c4.9-5,9.3-10.3,13.9-15.5c2.7-3,9.1-7.5,3.4-11c-9.5-6-9.7-11.1-9-21.3c0.6-9.4,1.4-18.7,3.3-28c3.2-15.4,8.2-30.3,12.7-45.4
	c2.7-8.9,5.3-17.8,7.6-26.8c1.3-5.1,3-10.1,3.4-15.4c0.2-2.5-1.9,1.6-2.5,2.9c-2.2,5-4.2,10.1-6.2,15.2c-1.7,4.3-3.4,8.6-4.9,13
	c-0.2,0.7-0.8,3.1-0.2,2c2.7-5.3,3.7-10.7,4.5-16.4c1.7-12.4-1.4-37.4-3.4-49.4c-2.9-16.8-7.1-32.9-13.4-48.8
	c-12.9-32.4-31.5-58.1-56.7-81.8"/>
<path class="st0" d="M350.7,727.7c-17.8-8-38-20.6-49.9-37c-5.6-7.8-7.9-14.2-4-23.7c1.5-3.6,19.1-37.2,20.9-40.6
	c6.9-13,13.8-26.1,20.8-39c3.3-6.1,6.5-12.2,9.9-18.3c2.5-4.4,4.3-8.3,10.4-6.6c7.7,2,14.8,9.4,20,14.4
	c11.4,10.8,22.2,22.2,33.4,33.1c34,33.1,69.3,62.2,112.1,84.2c24.7,12.7,49.2,21.9,77.2,25.1c5.4,0.6,10.2,1.7,12.6-4.9
	c2.5-6.8,1.4-16.9,1.1-23.6c-1.3-30.6-2.1-61.2-0.8-91.9c0.8-18.2,1.6-25.8,9.9-42.3c8.1-16.1,18.6-30.2,29.1-44.6
	c22.8-31.2,45.1-62.1,61.6-97.5c30.6-65.8,37.8-137,11.8-206.5c-13.5-36-33.2-64.4-61.2-90.5c-12.4-11.5-26.1-21.4-39.2-32
	c-2.7-2.2-5.4-4.1-7.3-7.2c-0.8-1.4-0.3-2.4,0.3-3.6c1-2.1,2-4.2,3.1-6.3c4.8-9.1,10.5-17.4,17-25.3c0.9-1.1,2.2-1.7,1.5-3.5
	c-1.8-4-5.1-5.8-8.3-8.1c-10.4-7.3-25.6-13.3-38.6-13.2c-14.8,0.1-21.4,7.6-15.5,21.7c1.9,4.5,4.3,8.7,6.9,12.8
	c1.6,2.6,3.3,5.1,5,7.6c0.9,1.3,4.9,5.7,3.4,7.9c-2.7,3.7-11.5,4.7-14.9,5.6c-7.7,1.9-15.2,3.4-22.2,7.7
	C538.1,93,561,110.2,571.3,119c23.6,20.2,47.7,39.1,66.1,65.1c23.6,33.2,34.8,71.9,33.3,112.5"/>
<path class="st0" d="M670.6,297.4c-0.5,12.4-2.2,24.4-5,36.5"/>
<path class="st0" d="M665.3,335c-3.7,15.2-8.1,29.4-17,42.7c-1.8,2.7-6.2,9.7-10.8,8.2c-2.8-0.9-5.2-2.6-7.7-3.9
	c-6.8-3.5-13.7-7.1-20.2-11.1c-4.3-2.7-8.5-5.3-12-9.2c-1.9-2.2-2.5-4.5-2.7-7.2c-0.7-7.7-1.6-15.3-2.8-22.9
	c-2.4-15.3-5.7-30.2-10.3-44.9"/>
<path class="st0" d="M543.7,770.7c-15.6-19.8-62.3-32.9-67.4-66.3c-1.5-10,0.8-18.9,3.2-28.3c2.3-9,4.4-18,6-27.2
	c2.2-12.5,3-27.6,18.4-33.4c11.4-4.3,28.4-5.2,40.1-7.2c18.7-3.4,36.2-8.9,53.2-17.6c17.9-9.1,33.3-20.3,47.4-34.7
	c4.6-4.7,8.8-9.8,13.2-14.8c1.5-1.7,10.7-11.6,11.7-13.9c1.7-3.8-1.9-4.6-3.9-6.5c-4.6-4.1-5.4-8.5-5.5-14.2
	c-0.5-25.3,9.7-47.5,14.2-71.3c0.1-0.7,0.3-1.4,0.3-2.1c0-0.2,0.3-0.7-0.1-0.6c-1.2,0.2-0.9,1.3-1.2,2.1c-0.4,1.1-0.8,2.1-1,3.3
	c-0.1,0.5,0,1.3,0.5,0.9c2.5-1.8,4.1-6.5,5.2-9c2.1-4.9,3.7-9.8,4.5-15.2c2.2-15.7-1.8-45-5.1-60c-7.2-32.7-19.7-60.7-39.7-87.6
	c-5-6.7-10.3-13.1-15.9-19.3c-2.8-3.1-5.7-6.2-8.7-9.1c-1.5-1.5-3-3-4.5-4.4c-0.8-0.7-1.5-1.5-2.3-2.2c-0.4-0.4-0.8-0.7-1.3-0.1
	c-3.7,4.7-7.3,9.6-10.5,14.8c-5.4,8.7-8.9,17.6-10.7,27.6"/>
<path class="st0" d="M583.5,274.3c-0.5,2.9-0.9,5.7-1.3,8.6c-0.2,1.5-0.3,3-0.5,4.5c-0.2,2.4,0.3,4.5,0.9,6.8
	c1.7,6.5,3.3,13.1,4.6,19.7c2.6,13.2,4.4,26.5,5.5,40c0.8,9.2,26.3,20.5,31.7,23.1c2.8,1.4,5.7,2.7,8.5,4.1c3.2,1.5,5.8,4.4,9.9,1.8
	c5.4-3.5,9.1-11,11.7-16.2"/>
<path class="st0" d="M654.7,366.1c6.4-13.1,10.4-26.5,13.2-40.8c4.5-23.1,4.9-45.3,0.8-68.5c-9-51.6-36.9-88.6-76.6-119.8
	c-11.3-8.9-23.1-17.3-34.4-26.3c-6-4.8-14.6-11.2-18.1-18.7c-6.5-13.9,14.1-19.2,23.7-21.6c6.8-1.7,13.7-2.6,20.5-4.5
	c2.3-0.6,7.9-2.2,5.9-5.5c-2.8-4.9-6.7-8.9-10-13.4c-4.9-6.9-17.8-23.7-8.4-32.9c7.7-7.5,23.5-5.4,31.9-3.4
	c11.4,2.6,21.3,6.8,30.6,14.1c1.9,1.5,3.7,2.8,4.9,5c0.6,1,0.4,1.7-0.3,2.6c-1,1.3-1.9,2.6-2.9,3.9c-1.8,2.5-3.6,5.1-5.2,7.7
	c-3.1,5-6,10.1-8.5,15.4c-1.2,2.5-2.3,5.1-3.3,7.6c-0.5,1.3-1,2.5-1.4,3.8c-1,2.7,2.3,4.7,3.8,6c5.2,4.5,11,8.3,16.5,12.4
	c9.7,7.1,19.2,14.5,28.2,22.5c14.1,12.6,26.5,26.3,37.4,41.8c16.3,23.2,27.3,47.4,34.6,74.7c24.1,89.9-3.3,171-53.5,243.2
	c-16.9,24.3-36.1,46.7-52.6,71.2c-7,10.5-13.3,20.9-17.2,33.1c-3.4,10.5-3.3,21-3.7,31.7c-0.6,19.4-0.7,38.8-0.1,58.2
	c0.4,13.8,1.5,27.5,1.5,41.3c0,4.4,0.3,11.4-2.7,15.5c-3.4,4.6-7.2,2.6-11.3,1.9c-10-1.6-19.8-4-29.4-7.1
	c-21.8-6.9-41.7-16.7-61.2-28.4c-38.2-22.9-70.7-51.1-101.8-82.4c-12.1-12.2-23.6-25.1-36.1-36.9c-4.5-4.2-12.5-12.7-20.3-11.9
	c-5.2,0.5-10.6,13.1-12.3,16.2c-4.4,7.9-8.7,15.8-13,23.8c-8.9,16.4-17.8,32.8-26.5,49.4c-2.4,4.6-11,19.9-11.9,25.4
	c-1,6.1,1.1,10.5,4.2,15.4c6.2,9.8,14.4,16.7,23.4,23.5c1.8,1.3,13.9,10,16.2,10.7c4.5,1.4,9,2.6,13.6,3.7
	c8.8,2.2,17.7,3.9,26.7,5.2c15.8,2.3,31.5,3,47.5,2.3c22.5-0.9,44.7-5.3,67.5-4.3c21.7,0.9,65.1,11.2,59.1,41.6"/>
</svg>
